<svg width="27" height="28" viewBox="0 0 27 28" fill="none" xmlns="http://www.w3.org/2000/svg">
<path d="M26.9764 10.4136C26.9705 10.337 26.9588 10.2664 26.9293 10.1957C26.9234 10.178 26.9116 10.1603 26.9057 10.1427C26.8468 9.99541 26.7585 9.85994 26.6112 9.74803L14.0713 0.194372C13.7297 -0.0647905 13.2585 -0.0647905 12.911 0.194372L0.371074 9.74803C0.217932 9.86583 0.123691 10.0131 0.0647909 10.1662C0.0294506 10.2664 0.00589018 10.3665 0.00589018 10.4725C0.00589018 10.4843 0 10.4961 0 10.5078V27.0412C0 27.5242 0.394633 27.9188 0.877617 27.9188H8.37565C8.37565 27.9188 8.37565 27.9012 8.37565 27.8953V17.6937C8.37565 17.4228 8.42866 17.1872 8.52879 16.9928C8.64659 16.7631 8.88808 16.6453 9.24737 16.6453C9.60667 16.6453 9.78337 16.8396 9.84816 16.9987C9.92473 17.1872 9.96596 17.4228 9.96596 17.6937V18.6832C10.2251 18.1708 10.5726 17.7644 11.0203 17.4581C11.6682 17.0105 12.3809 16.7101 13.1407 16.5569C13.8887 16.4097 14.5543 16.3331 15.1139 16.3331C15.9503 16.3331 16.551 16.3743 16.9516 16.4627C17.3462 16.551 17.6819 16.6335 17.9823 16.7218C18.2709 16.8043 18.43 17.0281 18.43 17.3521C18.43 17.5229 18.3711 17.6878 18.2592 17.8292C18.1355 17.9882 17.9588 18.0648 17.729 18.0648C17.6643 18.0648 17.623 18.0648 17.5877 18.0471C17.5818 18.0471 17.5465 18.0353 17.5052 18.0294C17.087 17.9116 16.6924 17.8233 16.3154 17.7585C15.9444 17.6937 15.5379 17.6643 15.1139 17.6643C13.8887 17.6643 12.7932 17.9057 11.8449 18.3887C11.4797 18.5713 11.1616 18.801 10.8907 19.0661C10.2722 19.6728 9.96007 20.5327 9.96007 21.4044V27.9012C9.96007 27.9012 9.96007 27.9188 9.96007 27.9247H26.1224C26.6053 27.9247 27 27.5301 27 27.0471V10.5137C27 10.4784 26.9823 10.4489 26.9823 10.4136H26.9764Z" fill="#55504A"/>
</svg>
